<?xml version="1.0" encoding="utf-8"?>
<!-- Generator: Adobe Illustrator 21.1.0, SVG Export Plug-In . SVG Version: 6.00 Build 0)  -->
<svg version="1.1" id="_x32_" xmlns="http://www.w3.org/2000/svg" xmlns:xlink="http://www.w3.org/1999/xlink" x="0px" y="0px"
	 viewBox="0 0 512 512" style="enable-background:new 0 0 512 512;" xml:space="preserve">
<style type="text/css">
	.st0{fill:#8A8A99;}
</style>
<g>
	<path class="st0" d="M0,212.3c0,54.2,20.8,108.8,62.2,150.2c41.4,41.4,96,62.2,150.2,62.2c37.8,0,75.8-10.3,109.3-30.5L424.5,497
		c20,20,52.5,20,72.5,0c20-20,20-52.5,0-72.5L394.1,321.7c20.2-33.6,30.6-71.5,30.5-109.4c0.1-54.2-20.8-108.8-62.2-150.1
		C321.1,20.8,266.6,0,212.4,0C158.1,0,103.6,20.8,62.2,62.2C20.8,103.6-0.1,158.1,0,212.3z M82,212.3c0.1-33.5,12.7-66.6,38.2-92.2
		C145.7,94.6,178.9,82,212.4,82c33.5,0.1,66.6,12.7,92.2,38.2c25.5,25.6,38.1,58.7,38.2,92.2c-0.1,33.5-12.7,66.6-38.2,92.2
		c-25.6,25.5-58.7,38.1-92.2,38.2c-33.5-0.1-66.6-12.7-92.2-38.2C94.6,279,82,245.9,82,212.3z"/>
</g>
</svg>
