<?xml version="1.0" encoding="utf-8"?>
<!-- Generator: Adobe Illustrator 23.0.3, SVG Export Plug-In . SVG Version: 6.00 Build 0)  -->
<svg version="1.1" id="レイヤー_1" xmlns="http://www.w3.org/2000/svg" xmlns:xlink="http://www.w3.org/1999/xlink" x="0px"
	 y="0px" viewBox="0 0 776.2 307.3" style="enable-background:new 0 0 776.2 307.3;" xml:space="preserve">
<style type="text/css">
	.st0{fill:#0099CC;}
</style>
<g>
	<path class="st0" d="M189.1,52.8c3.4,6.2-2.8,14.4-6.2,19.5c-5.1,7.6-11,14.7-17.5,21.5c-4.8,4.8-9.9,10.8-16.1,14.4
		c-5.7,3.4-13.9,2.5-7.1-4.5c2-1.1,9.9-20.9,13.9-20.7c-0.6,0.6-2.8,5.4-4.2,7.9c7.6-10.5,28.3-41.3,12.2-48.7
		c-6.5-2.8-16.1,0-22.6,2.3c-7.4,2.5-14.4,6.5-20.7,11.3c8.8-6.5,19-11,30-13c4.8-0.8,11.3-2,15.3,1.4c4.2,4.2,1.7,8.8,1.1,13
		c0-7.1,2.3-13.9-8.2-14.7c-8.8-0.3-17.8,2.8-25.5,6.5c-13.3,6.5-25.5,17.5-32.3,30.8c-15,29.7,7.4,61.4,19,88
		c-5.7-10.8-12.2-21.2-17.5-32c4,8.8,5.4,17,10.2,25.5c6.5,10.5,13.3,20.1,17,32c7.6,25.5-0.3,46.1-19.8,63.1l5.7-4
		c0.3,8.5-25.5,19.2-31.4,21.5c-17,6.8-39.3,8.2-56.3-0.3c-24.7-12.3-19-43.7-7.1-62.9c2.8-4.5,23.8-32.3,30-21.2
		c2.5,4.5-6.5,16.7-8.2,21.2c-2.3,4.8-3.7,9.9-4.8,15c-2,9.1-3.7,19.8,0.3,28.6c4.5,10.8,16.7,10.8,26.6,7.9
		c13.6-4.2,25.8-14.1,33.1-26.3c3.7-6.2,6.2-13.3,6.8-20.7c0-2.8-0.3-5.4-0.8-8.2c-0.6-1.4-2.3-4-1.7-5.9c0,1.1,1.1,3.1,1.7,4.5
		c-0.6-2-1.1-3.7-1.4-5.9c0,0.3-1.1-2-1.4-2c-0.8-2-1.7-4.2-2.3-6.2l-5.1-12.7C88,164,81.2,149.6,75,134.8
		c-4.5-10.8-7.6-22.6-8.2-34.2c-0.3-2.5-1.7-19.8,2.8-19.8c-0.3,0-1.1,4.5-0.8,4.5c1.1-5.1,3.1-10.5,5.9-15.8l-2,2.8
		c1.4-9.9,13.3-20.4,20.1-26.6c9.9-9.1,22.4-15.8,35.4-19.2c13.6-3.4,25.8-1.1,38.5,4.2c5.1,2,9.9,4.2,13.9,7.6
		C185.4,42.3,186.8,47.4,189.1,52.8z M27.8,206.7c-13.3,18.1-20.1,42.5-5.4,60.8C11.3,253.7,16.2,223.4,27.8,206.7z M95.4,106.8
		c0-1.1,0.3-2.5,0-4V106.8z"/>
	<path class="st0" d="M259.3,182.7l-8.8,11.6l-15.3,19.8c-4,5.1-8.8,9.9-12.7,15c-4.2,5.7-7.9,11.6-12.7,17
		c-5.1,5.4-11,11-17.8,14.7c-4.8,2.5-9.3,2.8-14.4,1.4c-7.4-2-13.9-6.5-18.7-12.2c-1.4-1.7-2.8-3.1-3.1-5.4
		c-0.3-1.7-0.6-3.7-0.6-5.7c-0.3-3.4,0.8-5.9,1.4-9.3c0.6-3.7,2.3-7.1,2.8-10.8c0.6-4,1.7-7.6,2.3-11.3c0.3-3.4-0.3-7.1,0.6-10.5
		c0.6-2.3,2.3-4.5,3.1-7.1c-0.8,1.7-2.3,3.4-2.5,4.8c-0.8,2.3-1.4,4.5-2.3,6.5c-0.8,2.3-1.1,4.2-2,6.5c-1.1,2.5-2.3,4.8-2.5,7.6
		c-0.3,2.5,0,5.1-0.3,7.6c-0.6,2.5-1.1,4.5-1.1,7.1c0,0.8,0.6,2.5,0.6,3.1c0,1.1-0.6,2.5-0.6,4c0,2.5,0.6,5.1,0.8,7.9
		c-4.5-7.9-3.7-15.8-2.3-24.3s2.5-16.7,4.5-24.9c3.7-16.7,11.3-33.1,22.1-46.4c8.8-11.6,20.4-20.4,35.7-17.5
		c5.7,1.1,11.9,3.7,15.6,8.5c4,5.4,3.7,12.2,1.7,18.4c-3.7,11-13,19.8-21.8,27.2c-3.7,3.1-7.6,6.2-11.9,8.8c-2.8,1.7-5.9,2.8-9.1,4
		l-4.8,1.7c-2,0.6-2.3,0.3-3.1,2c-1.4,2.8-0.6,5.7-1.1,8.5c-0.6,3.7-1.4,7.1-2.3,10.8c-1.4,6.8-3.7,15.6-2,22.6
		c3.1,14.4,26.9-7.9,31.1-11.9c2.8-2.5,5.4-5.4,7.9-7.9c1.4-1.7,3.1-3.1,4.2-4.8c0,0,0.6-1.4,0.6-2c3.4-5.4,7.9-10.5,12.2-15.6
		c5.1-5.9,9.6-12.2,14.4-18.7c2.5-3.7,8.5-14.1,13-6.5v0.3c0.3,0.3,0.3,0.3,0.3,0C261.5,179.5,260.7,181,259.3,182.7z M186.5,189.5
		c9.1-4.8,17.3-11.3,23.8-19l4.8-6.2c0.8-1.4,2.3-2.3,2.8-4c0.3-1.4-0.3-2.5,0-4.2l1.1-5.9c0.3-2.8-0.8-10.2-5.1-9.3
		c-2,0.6-4,3.1-5.1,4.5l-5.1,6.8c-5.9,8.8-9.1,18.4-13.3,27.5c0,0,0,0.3-0.3,0.8C188.8,183.2,187.9,186.3,186.5,189.5z"/>
	<path class="st0" d="M376.1,197.4c-3.7,8.5-7.9,16.1-12.5,23.8c-5.4,8.5-10.8,16.7-17,24.1c-5.1,6.5-12.2,14.7-20.7,16.1
		c-9.6,1.7-17.3-6.2-20.4-14.7c-6.8-16.7-2-34.2,3.1-50.4c0,0,0-2.5,0.3-4.5c-2.8,4.2-6.8,9.3-9.3,13.3c-3.4,5.4-5.9,10.8-9.6,15.8
		c-1.7,2.5-24.9,30.6-28,25.8c0,0,3.4-1.4,3.1-2c-3.4,2.3-7.9,2.8-11.9,1.7c0.8,0.6,1.4,0.8,1.1,0.8c-6.5,0.8-11.6-9.3-13-13.9
		c-2.3-7.9-1.7-16.7-0.3-24.6c3.1-16.4,9.9-34.2,19.5-48.4c2.5-3.4,5.1-7.4,8.8-9.9c2.3-2,4.2-2.3,6.8-4c4.2-3.7,7.9-6.8,14.2-6.8
		c13.9,0,19.5,15.8,22.4,26.6c6.8-8.8,19-20.4,29.4-7.6c5.7,6.8,2,11.9-1.1,18.1c-5.4,9.9-9.6,22.1-11.9,32.3
		c0.3-0.8,1.1-5.1,2.3-5.4c2.3-0.6-18.1,63.4,11,27.5c8.8-11,16.4-22.6,24.1-34.2c3.4-5.4,6.8-11,10.5-16.4c1.7-2.3,6.8-7.6,7.1-1.4
		C384.6,185.5,378.4,192,376.1,197.4z M304.2,176.4c0-2.3-5.7-17.8-4.2-19c0.3-0.3,2.8,7.9,3.1,8.5c-0.8-3.4-2-13.9-7.1-13.9
		c-9.3,0-16.4,17.3-19.5,23.8c-5.7,12.7-10.8,26.3-13,40.2c0.8-4.2,17.3-55.5,22.4-55.2c-4,0.8-19,44.4-19.8,48.4
		c-0.6,2.3-5.1,17-0.8,18.4c2.8,0.8,9.6-7.9,11-9.9c5.4-6.5,10.5-13.3,15.3-20.4l7.4-10.5c1.1-2,2.5-4,4-5.9
		C304.2,178.7,304.2,178.7,304.2,176.4z M305.1,174.5v2.8C305.9,176.4,305.9,175.6,305.1,174.5z M311.9,188l-1.4,2
		c-0.3,0.8-1.1,4.8-1.1,4.8L311.9,188z"/>
	<path class="st0" d="M475.7,181c1.1,9.1-13,16.4-19,20.7c-8.2,5.9-16.4,11.6-25.5,16.4c-2.3,1.1-5.7,2.3-7.9,4
		c-3.1,2.5-2.5,2.3-2,6.8c0.8,5.1,1.4,10.2,1.4,15.6c0.3,7.9-0.6,15.8-3.4,23.5c-6.8,17.5-20.4,28.9-39.9,28.3
		c-17.3-0.3-35.7-9.3-32-28c-0.3,0.6-1.1,5.4-1.4,5.1c-2-1.1,0-7.4,0.6-8.8c3.4-10.5,12.5-18.7,20.9-25.2c4.8-3.7,9.6-7.4,14.4-10.5
		c3.7-2.3,12.2-5.7,12.7-9.6c0.8-4-2.8-12.5-4-16.7c-1.1-5.4-3.1-11-3.7-16.7c-0.3-3.7,0.8-5.9,0-9.3c-1.4-4.5-2.8-8.8-3.1-13.6
		c-0.3-4.8-0.3-9.6,1.4-14.2c2.3-6.8,17.3-22.4,24.9-15.3c0-1.4,3.7,4,4,5.7c0,1.1-1.1,11.6-2.8,11.3c0,0,0.6-2.5,0.8-4.5
		c-1.4,4-3.7,7.6-4,11.9c-0.6,3.7,0.3,7.9,0.8,11.3c0-0.6,0-1.1,0.6-1.4c-0.3,0,2.8,14.7,5.4,26.6c-2-7.6-4.5-16.7-5.7-22.1
		c2.3,12.5,5.1,24.6,7.9,36.8c0.3-0.3,0.6-0.8,0.3-2.3c0.3,0.8,0.6,1.4,0.6,1.7c12.5-6.2,24.1-12.2,35.7-19.5
		c5.1-3.4,10.5-9.1,15.8-11.6c2.8-1.1,5.1-0.6,5.9,3.4v0.2H475.7z M373.9,277.8l7.9-3.1c0.3,0.3-2.3,2-2.3,2.3
		c3.4-2,6.2-4.5,8.8-7.6l-1.4,1.1c2.3-2.3,7.6-13.6,7.9-14.7c2-6.8,2-13.6,1.7-20.4c-0.6,0.6-1.4,0.8-2,1.1l2-1.7l-3.4,2
		c1.7-0.6-3.7,3.7-4.5,4.2l-8.5,5.7c-5.7,4-11.9,8.2-16.1,13.9c-2.5,3.7-9.9,15.3-2.5,17.5C365.4,279.4,369.9,278.6,373.9,277.8z
		 M411.5,271.8c-8.2,11.6-22.6,18.4-36.5,19.2c7.6-0.3,14.7-1.7,22.1-4.8C404.4,282.8,408.4,278,411.5,271.8z M416,197.9
		c0.8,3.1,1.4,5.9,1.7,7.9C417.2,204.2,416.6,201.1,416,197.9z M421.1,233.9c0,0.6,0,1.1,0.3,1.4C421.4,235,421.1,234.5,421.1,233.9
		z"/>
	<path class="st0" d="M522.4,192.9c-4.8,7.1-9.3,13.9-14.7,20.7c-5.7,7.6-12.7,19.8-22.6,22.1c-2.3,0.3-13-2.5-12.7-4.2h0.6
		c-2.3-1.1,0,1.4-3.4-1.1c-2.5-1.7-4.2-4.2-5.9-6.8c-3.1-4.2-7.1-7.9-8.2-13c-0.3-1.4-0.8-11.6,1.4-11.6c0.6,0,0,1.4,0.3,1.4
		l0.8-5.1c-0.3,0.6-0.3,0.8-0.8,1.1c-1.1-0.3,4.2-20.4,4.8-22.1c2.3-5.9,3.4-12.7,9.1-16.1c4.2-2.8,9.6-2.3,15,0
		c2.3,0.8,8.8,3.7,8.8,6.5c0,1.7-1.4,2-2.3,2.8c0.3-0.3,0.8-0.3,1.1-0.3c0.8,0.6-3.4,6.5-4,6.2c-0.6,0,0.3-1.4,0.6-2.3
		c-5.4,8.8-9.9,18.7-13.3,28.6c1.4-3.7,8.5-19.5,9.3-19.2s-18.7,34.2-9.1,39.1c4.5,2.3,12.2-4.8,15.3-7.4
		c5.4-4.2,12.7-9.6,16.7-14.4c-0.6,0.6-1.1,0.6-2,0.6c-1.1-1.4,13-20.1,15.6-21.8c2-1.4,5.9-2.5,6.5,1.1
		C530.4,182.9,525.3,189.2,522.4,192.9z M474.3,209l-0.6,2.3l0.6-1.7v-0.3C474.6,208.7,474.6,208.7,474.3,209z M478,139.1
		c-0.3-0.8-1.1-9.6,2-8.2c0-0.8,3.4-5.1,1.7-1.4c2.5-3.4,4.8-7.4,6.8-11.6l-3.4,5.1c2.5-5.1,6.5-15.6,6.8-17.5c0-0.3-0.6-2.8,0-3.4
		c-5.9-2.3-1.7-5.7,0.8-7.6c-0.6,0-0.8,0-1.1-0.6c-1.1-1.1,2.3-2,3.1-2.3c4-1.7,9.1-0.8,12.7,1.1c3.1,2,5.9,6.2,7.1,9.6
		c1.1,3.7-1.7,7.9-4.2,10.2c-1.1,1.1-3.1,2-4.5,3.1c-1.7,2-1.4,4.5-2.8,6.5c-0.8,1.4-2.5,2-3.4,3.4c-1.1,0.8-1.1,1.7-0.3,2.5
		c-1.1,0.6-2,1.1-2.8,2c-2.8,4.5-4.5,7.1-7.9,9.6c3.1-2,5.1-3.7,7.9-7.4c2.3-2.8,4.8-4.8,8.2-6.2c-2.8,3.1-3.4,6.8-6.8,9.1
		c-3.4,2-0.3-2-4,1.4c0,0,1.7-0.3,0.8,0.3c-2.5,2.3-5.1,5.9-8.5,7.4c-1.7,0.6-2.8,1.7-4.8,0.8c-2-1.1-1.1-2.3-1.7-3.1
		C479.7,141.9,478,139.4,478,139.1z M480.3,130.9c0.3,0,0.3,0.3,0.3,0.3c0.3-0.3,0.3-0.3,0.3-0.6
		C480.5,130.9,480.5,130.9,480.3,130.9z M484.8,123.5c-0.6,1.1-1.1,1.7-1.1,1.7L484.8,123.5z"/>
	<path class="st0" d="M663.1,195.4c-5.9,6.2-11.6,13-17.3,19.8c-11.6,14.2-20.7,30.6-32.3,45.3c-9.1,11.3-24.1,32-39.1,16.7
		c-12.2-11.9-9.1-34.5-7.6-49.5c-8.5,8.5-17.5,16.7-27.2,23.8c-5.4,3.7-11.6,7.9-18.4,6.5c-22.1-4.5-19-35.4-12.5-50.4
		c3.7-8.8,5.1-18.1,10.2-27.2c5.7-10.2,13.9-21.8,24.9-26.3c13.3-5.4,25.5,9.6,33.1,18.4c6.8-24.9,16.1-48.7,26.9-72.2
		c0.6-0.8,2.5-9.1,4.8-10.8c-1.1,0.8-2.5,5.4-3.1,7.6c1.1-3.1,2.8-6.2,4.5-9.3h-0.3c0.8-1.1,4.5-10.2,5.4-11.3
		c2.5-4.2,5.4-8.2,8.2-11.9c5.4-6.2,11.9-12.2,19.5-15c10.5-4,26-1.7,30.3,9.9c5.7,15.8-4.8,34.5-12.5,47.5
		c-4.8,7.9-9.9,16.1-15.3,23.8l-7.4,9.6l-2.5,2.8c0.3-0.6,0.6-1.1,0.3-1.4l-2.3,3.1h0.3h-0.3l-0.8,1.1l-12.2,16.4
		c1.4-1.7,3.7-4.5,4.2-4.2c0,0-19.2,24.6-20.9,26.9c-7.1,8.8-7.9,23.5-9.6,34.5c-1.1,6.2-8.8,46.1,1.1,46.1c2.5,0,5.9-4.8,7.4-6.5
		c4.2-4.5,7.9-9.3,11.6-14.4c7.6-10.2,14.7-20.4,22.1-30.6c7.4-9.9,15-19.8,23.2-28.9c1.7-1.4,14.4-17,16.1-7.6v0.3
		C676.7,185.2,667.6,190.9,663.1,195.4z M571.7,195.7c1.1-5.1,3.1-9.9,0.3-14.4c-2.5-3.7-4.8-8.5-8.5-11c-1.4-1.1-3.4-2.5-5.4-2
		c-0.3,0-0.6,0-0.8,0.3l1.4-0.8c-5.9,0.6-10.5,10.2-13.6,16.1c-6.2,11.9-11.6,24.3-15.3,37.4c-1.1,4.5-6.8,20.7-0.3,23.5
		c3.4,1.7,9.1-2.5,12.5-5.7c-3.7,3.1-7.9,5.4-10.5,5.1c-9.3-0.6-2.5-19,1.7-30.3c-4,11-9.9,29.1-2,30c6.5,0.6,16.7-11,20.9-15
		c4.5-4.2,9.1-8.5,13.3-13c4.8-4.8,4.8-10.8,5.9-17.5c0,0,0-0.6,0.3-1.4L571.7,195.7L571.7,195.7z M543.9,237h0.3
		c4.2-3.4,8.5-7.1,12.2-10.8c3.1-2.8,11.9-9.1,12.5-12.7c-6.5,6.8-13.3,13.3-20.4,19.5L543.9,237z M553.6,171.6c0.3,0,1.1-1.1,2.3-2
		C555,170.5,554.1,171.6,553.6,171.6z M565.4,170.2c-0.6-0.6-1.1-0.8-1.7-1.1L565.4,170.2z M595.7,147c-0.6,2.3-3.4,5.4-4,7.1
		c-1.1,3.4,0.3,7.1-2,9.9c0.3,0,0.6-0.3,0.6-0.6c0.8-0.8,2.5-7.4,3.1-8.8C594.3,153.2,595.7,149.3,595.7,147z M603.7,115.3
		c-1.4,3.7-3.4,7.6-5.1,10.8c-2,4-2.8,8.2-4.2,12.5c1.7-3.1,3.1-6.2,4.2-9.6C600,124.6,602.2,119.8,603.7,115.3z M617,132.3
		l-0.8,1.4c-0.3,1.1-0.6,1.7-0.3,1.4c-4.2,12.2-8.2,24.3-11.9,36.5c0.3-0.6,0.8-1.1,1.4-1.7c-1.4,2-2.8,3.7-3.1,5.4l1.1-1.1l2-2.5
		l14.4-18.7l-5.7,7.1l-6.2,6.5c11.6-14.4,22.6-30,32.5-45.8c8.5-13.6,22.1-33.7,20.9-50.7c0-2.5-0.6-6.2-3.1-7.6
		c-6.5-3.7-13.9,9.3-16.4,13.6c-10.2,16.4-17.3,34.5-23.8,52.6v0.3c0,0-0.3,0.3-0.6,1.1v0.3c-0.3,0.3-0.3,0.8-0.3,1.1
		C617,131.7,617,132,617,132.3z M616.1,133.7c0,0.6-0.3,1.1-0.3,1.4l1.1-2.8L616.1,133.7z M620.4,163.1c-0.3,0.3-0.6,0.6-0.6,0.8
		C619.8,164,620.1,163.7,620.4,163.1z M620.6,162.6l-0.3,0.6C620.4,163.1,620.6,162.9,620.6,162.6z"/>
	<path class="st0" d="M762.4,182.7l-8.8,11.6l-15.3,19.8c-4,5.1-8.8,9.9-12.7,15c-4.2,5.7-7.9,11.6-12.7,17
		c-5.1,5.4-11,11-17.8,14.7c-4.8,2.5-9.3,2.8-14.4,1.4c-7.4-2-13.9-6.5-18.7-12.2c-1.4-1.7-2.8-3.1-3.1-5.4
		c-0.3-1.7-0.6-3.7-0.6-5.7c-0.3-3.4,0.8-5.9,1.4-9.3c0.6-3.7,2.3-7.1,2.8-10.8c0.6-4,1.7-7.6,2.3-11.3c0.3-3.4-0.3-7.1,0.6-10.5
		c0.6-2.3,2.3-4.5,3.1-7.1c-0.8,1.7-2.3,3.4-2.5,4.8c-0.8,2.3-1.4,4.5-2.3,6.5c-0.8,2.3-1.1,4.2-2,6.5c-1.1,2.5-2.3,4.8-2.5,7.6
		c-0.3,2.5,0,5.1-0.3,7.6c-0.6,2.5-1.1,4.5-1.1,7.1c0,0.8,0.6,2.5,0.6,3.1c0,1.1-0.6,2.5-0.6,4c0,2.5,0.6,5.1,0.8,7.9
		c-4.5-7.9-3.7-15.8-2.3-24.3s2.5-16.7,4.5-24.9c3.7-16.7,11.3-33.1,22.1-46.4c8.8-11.6,20.4-20.4,35.7-17.5
		c5.7,1.1,11.9,3.7,15.6,8.5c4,5.4,3.7,12.2,1.7,18.4c-3.7,11-13,19.8-21.8,27.2c-3.7,3.1-7.6,6.2-11.9,8.8c-2.8,1.7-5.9,2.8-9.1,4
		l-4.8,1.7c-2,0.6-2.3,0.3-3.1,2c-1.4,2.8-0.6,5.7-1.1,8.5c-0.6,3.7-1.4,7.1-2.3,10.8c-1.4,6.8-3.7,15.6-2,22.6
		c3.1,14.4,26.9-7.9,31.1-11.9c2.8-2.5,5.4-5.4,7.9-7.9c1.4-1.7,3.1-3.1,4.2-4.8c0,0,0.6-1.4,0.6-2c3.4-5.4,7.9-10.5,12.2-15.6
		c5.1-5.9,9.6-12.2,14.4-18.7c2.5-3.7,8.5-14.1,13-6.5v0.3c0.3,0.3,0.3,0.3,0.3,0C764.7,179.5,763.8,181,762.4,182.7z M689.7,189.5
		c9.1-4.8,17.3-11.3,23.8-19l4.8-6.2c0.8-1.4,2.3-2.3,2.8-4c0.3-1.4-0.3-2.5,0-4.2l1.1-5.9c0.3-2.8-0.8-10.2-5.1-9.3
		c-2,0.6-4,3.1-5.1,4.5l-5.1,6.8c-5.9,8.8-9.1,18.4-13.3,27.5c0,0,0,0.3-0.3,0.8C691.9,183.2,691.1,186.3,689.7,189.5z"/>
</g>
</svg>
