<?xml version="1.0" encoding="utf-8"?>
<!-- Generator: Adobe Illustrator 23.1.0, SVG Export Plug-In . SVG Version: 6.00 Build 0)  -->
<svg version="1.1" id="レイヤー_1" xmlns="http://www.w3.org/2000/svg" xmlns:xlink="http://www.w3.org/1999/xlink" x="0px"
	 y="0px" viewBox="0 0 2126 1007.7" style="enable-background:new 0 0 2126 1007.7;" xml:space="preserve">
<style type="text/css">
	.st0{fill:#FFFFFF;}
</style>
<g>
	<path class="st0" d="M306.7,689.9c48-22.9,115.6-81.6,115.6-114c0-12.3-7.8-24.6-25.1-24.6c-122.3,0-362,157.5-362,253.6
		c0,14,11.2,26.8,30.2,26.8c64.2,0,141.9-45.8,202.2-45.8c29,0,56.4,26.3,56.4,52.5c11.7-2.2,22.9-3.4,32.4-3.4
		c7.8,0,12.8,6.7,12.8,8.9c0,1.7-1.1,2.2-3.4,2.2c-15.1,0-29.6,1.1-44.1,2.8c-19.6,57.5-163.1,158.6-219.5,158.6
		c-17.3,0-40.2-11.7-40.2-33.5c0-41.9,127.4-102.8,223.4-127.9c3.4-8.4,5-16.2,5-24c0-14.5-7.8-28.5-30.2-28.5
		c-48,0-151.9,51.4-206.1,51.4c-25.7,0-54.2-19-54.2-44.7C0,694.4,250.8,529,381,529c33,0,49.2,24,49.2,44.7
		c0,44.1-105.6,127.4-115.6,127.4c-3.4,0-10.6-5.6-10.6-8.4C303.9,691.6,305,690.5,306.7,689.9z M282.1,855.2
		C177.6,878.1,86,936.2,86,985.4c0,7.8,6.1,15.6,18.4,15.6C145.8,1001,251.4,920.6,282.1,855.2z"/>
	<path class="st0" d="M444.1,791.6c0,6.7-31.3,50.3-34.1,58.1c0,0,96.6-98.3,110.6-98.3c9.5,0,29,13.4,29,31.8
		c0,19-34.1,50.8-34.1,57c0,0,63.1-46.9,73.2-46.9c8.9,0,20.1,19,20.1,35.8c0,16.8-34.6,39.1-34.6,62c0,3.9,2.2,6.1,6.1,6.1
		c27.4,0,93.8-69.8,93.8-69.8s1.7-2.2,3.4-2.2s2.8,1.7,2.8,2.2c0,1.1-4.5,5-6.1,6.7c0,0-70.4,73.2-97.2,73.2
		c-12.3,0-29.6-14-29.6-31.3c0-23.5,38.5-60.9,38.5-69.8c0-1.1-1.1-2.2-2.2-2.2c-5.6,0-43.6,23.5-63.1,42.5
		c-13.4,12.8-23.5,25.1-26.8,25.1c-6.7,0-17.3-12.8-17.3-20.1c0-15.6,47.5-74.3,47.5-87.7c0-1.7-0.6-2.2-1.7-2.2
		c-17.3,0-101.1,84.9-117.3,105c-16.2,19.6-20.1,30.2-25.7,30.2c-5,0-17.3-10.6-17.3-24.6c0-22.3,35.8-64.2,57.5-105
		c1.7-2.8,3.4-4.5,5.6-4.5C432.9,762.5,444.1,777,444.1,791.6z"/>
	<path class="st0" d="M746.3,773.1c0,10.1-63.7,82.1-63.7,106.1c0,6.7,3.9,9.5,8.9,9.5c31.8,0,96.6-61.4,96.6-61.4s2.2-2.2,3.9-2.2
		c1.1,0,2.2,1.7,2.2,2.2c0,1.1-4.5,5-6.1,6.7c0,0-68.2,65.4-104.5,65.4c-8.9,0-26.8-12.8-26.8-30.7c0-24.6,48.6-86.6,59.2-112.8
		c1.7-3.4,3.9-5.6,6.7-5.6C734,750.2,746.3,763.1,746.3,773.1z M801.6,675.9c0,3.9-7.3,15.6-11.7,17.9c-3.4,1.7-10.6,3.9-15.6,5.6
		c-10.6,3.4-14,9.5-16.2,9.5c-1.7,0-3.4-1.1-3.4-3.4c0-13.4,21.2-41.3,21.2-54.7c0-1.7,1.1-2.2,2.2-2.2
		C787.1,648.6,801.6,668.1,801.6,675.9z"/>
	<path class="st0" d="M913.9,827.3c1.1-1.1,2.2-2.2,3.4-2.2c1.7,0,2.2,1.7,2.2,2.2c0,1.1-3.9,5-5.6,6.7c0,0-72.6,68.7-103.3,68.7
		c-15.1,0-27.9-11.2-27.9-34.1c0-106.1,108.9-268.1,151.4-268.1c16.2,0,29,14.5,29,30.7c0,38-89.9,138.5-144.1,189.4
		c0,0-10.6,29-10.6,52c0,13.4,6.1,17.9,14,17.9C844.6,890.4,913.9,827.3,913.9,827.3z M953,630.7c0-5-3.4-7.3-7.3-7.3
		c-31.3,0-107.8,129.6-122.3,184.3C866.9,764.7,953,664.8,953,630.7z"/>
	<path class="st0" d="M989.8,863.1c2.8-2.8,4.5-4.5,5.6-4.5c1.1,0,2.2,1.1,2.2,2.2c0,1.7-1.7,4.5-5.6,8.4
		c-11.2,11.2-24,25.1-46.9,25.1s-43.6-17.9-43.6-46.9c0-50.3,50.3-102.8,74.9-102.8c15.1,0,24.6,19,24.6,25.7
		c0,15.6-36.9,45.2-67.6,64.2c-1.1,3.4-1.7,13.4-1.7,17.3c0,19,10.1,31.8,25.1,31.8C968.6,883.7,980.9,871.4,989.8,863.1z
		 M989.3,770.9c0-4.5-1.7-6.1-4.5-6.1c-9.5,0-34.1,21.8-50.8,62.6C959.1,810.6,989.3,783.7,989.3,770.9z"/>
	<path class="st0" d="M1452.3,827.3c0,0,2.2-2.2,3.4-2.2c1.7,0,2.2,1.7,2.2,2.2c0,1.1-5.6,6.7-5.6,6.7
		c-39.7,41.3-139.1,117.3-221.2,117.3c-53.1,0-114-45.8-114-101.7c0-143.6,234.6-320.6,353-320.6c40.2,0,57.5,35.8,57.5,58.1
		c0,40.2-79.9,107.8-97.2,107.8c-13.4,0-26.8-8.9-26.8-12.3c0-2.2,1.7-2.8,3.4-3.4c38-6.7,111.7-56.4,111.7-100.5
		c0-11.7-12.3-24-33-24c-110.6,0-336.3,174.3-336.3,316.2c0,44.7,31.3,67,79.3,67C1321.1,937.9,1396.5,882.6,1452.3,827.3z"/>
	<path class="st0" d="M1498.1,774.2c-13.4-5.6-30.2-12.3-30.2-25.1c0-20.7,25.1-39.1,38-39.1c7.8,0,21.2,11.2,21.2,15.1
		c0,13.4-8.9,30.2-21.2,46.9c17.3,8.4,45.8,13.4,45.8,27.9c0,21.2-38.5,51.4-38.5,72.6c0,6.7,3.9,12.8,11.7,12.8
		c20.7,0,79.3-58.1,79.3-58.1c1.1-1.1,2.2-2.2,2.8-2.2c1.7,0,2.2,1.7,2.2,2.8s-2.8,3.9-5,6.1c0,0-58.7,60.9-86,60.9
		c-16.8,0-34.6-14.5-34.6-30.2c0-33,29.6-59.8,29.6-77.1c0-5-4.5-8.4-10.1-11.2c-16.8,21.8-37.4,43.6-50.8,57.5
		c-1.1,1.1-2.2,2.2-2.8,2.2c-1.1,0-2.2-1.1-2.2-2.2s2.8-3.9,5-6.7C1464.1,814.5,1483.6,794.4,1498.1,774.2z M1514.9,725.6
		c-5,0-21.8,11.7-21.8,31.8c0,5,3.4,8.9,8.4,12.3c9.5-14.5,16.8-29,16.8-41.3C1518.2,726.8,1516.6,725.6,1514.9,725.6z"/>
	<path class="st0" d="M1737.2,825.1c1.7,0,2.2,1.7,2.2,2.2c0,1.1-3.9,5-5.6,6.7c0,0-55.3,60.3-98.3,60.3
		c-28.5,0-43.6-17.9-43.6-46.9c0-50.3,50.3-102.8,74.9-102.8c15.1,0,24.6,19,24.6,25.7c0,15.6-34.1,45.2-64.8,64.2
		c-1.1,3.4-1.7,13.4-1.7,17.3c0,17.3,8.4,31.8,24.6,31.8c29.6,0,84.3-56.4,84.3-56.4S1736.1,825.1,1737.2,825.1z M1679.7,770.9
		c0-4.5-1.7-6.1-4.5-6.1c-9.5,0-31.3,21.8-48,62.6C1652.3,810.6,1679.7,783.7,1679.7,770.9z"/>
	<path class="st0" d="M1855.1,892.1c-17.9,0-33.5-12.3-33.5-33.5c0-10.6,1.7-20.1,1.7-20.1c-27.9,27.4-67,67.6-79.9,67.6
		c-12.8,0-32.4-15.1-32.4-32.4c0-44.7,76-121.8,124-121.8c21.8,0,43,19.6,43,31.8c0,8.9-2.8,14.5-4.5,14.5c-1.7,0-5-3.4-5-5.6
		c0-2.2,2.8-3.9,2.8-10.6c0-3.9-6.1-8.9-10.1-8.9c-52.5,0-125.1,78.2-125.1,116.7c0,4.5,2.2,7.3,7.3,7.3c10.6,0,50.8-38.5,77.6-65.4
		c16.8-16.8,29-27.9,34.1-27.9c5,0,20.1,14.5,20.1,23.5c0,6.7-24.6,25.1-24.6,42.5c0,7.3,5.6,10.6,12.3,10.6
		c27.4,0,80.4-53.1,80.4-53.1c1.1-1.1,2.2-2.2,3.4-2.2c1.7,0,2.2,1.7,2.2,2.2c0,1.1-3.9,5-5.6,6.7
		C1943.3,834,1886.3,892.1,1855.1,892.1z"/>
	<path class="st0" d="M2065.1,682.1c29,0,60.9,6.7,60.9,7.8c0,1.7-1.1,3.4-2.2,3.4c-1.7,0-22.3-3.9-50.8-3.9
		c-19,0-28.5,2.8-28.5,2.8c-40.8,58.7-105,151.9-105,216.2c0,24.6,9.5,34.6,26.8,34.6c2.2,0,5,3.4,5,5c0,2.2-3.4,2.8-5.6,2.8
		c-14.5,0-40.8-17.9-40.8-55.3c0-54.2,43.6-131.8,79.3-195c-20.7,3.4-31.3,9.5-32.4,9.5c-4.5,0-11.7-9.5-11.7-12.8
		c0-1.1,0-2.2,2.8-3.4c8.9-3.9,27.4-7.3,50.3-9.5c20.7-36.3,36.9-65.9,36.9-79.9c0-2.8,1.1-3.9,2.8-3.9c7.8,0,25.7,22.3,25.7,38.5
		c0,5-10.6,20.7-26.8,43H2065.1z"/>
	<path class="st0" d="M2089.1,863.1c2.8-2.8,4.5-4.5,5.6-4.5c1.1,0,2.2,1.1,2.2,2.2c0,1.7-1.7,4.5-5.6,8.4
		c-11.2,11.2-24,25.1-46.9,25.1s-43.6-17.9-43.6-46.9c0-50.3,50.3-102.8,74.9-102.8c15.1,0,24.6,19,24.6,25.7
		c0,15.6-36.9,45.2-67.6,64.2c-1.1,3.4-1.7,13.4-1.7,17.3c0,19,10.1,31.8,25.1,31.8C2067.9,883.7,2080.2,871.4,2089.1,863.1z
		 M2088.6,770.9c0-4.5-1.7-6.1-4.5-6.1c-9.5,0-34.1,21.8-50.8,62.6C2058.4,810.6,2088.6,783.7,2088.6,770.9z"/>
</g>
<g>
	<g>
		<path class="st0" d="M1013.4,472.4c14.8,11.5,31.8,20.4,49.6,25.7c17.8-5.3,34.8-14.2,49.6-25.7c-17.6-5.4-34.2-13.3-49.6-23.6
			C1047.6,459.1,1031,467,1013.4,472.4z"/>
		<path class="st0" d="M870,371.9c2.3,18.6,8.1,36.9,16.9,53.2c16.4,8.8,34.6,14.6,53.3,16.9c-8.7-16.2-14.9-33.6-18.4-51.7
			C903.6,386.7,886.2,380.5,870,371.9z"/>
		<path class="st0" d="M1185.8,442c18.6-2.3,36.9-8.1,53.3-16.9c8.8-16.4,14.6-34.6,16.9-53.2c-16.2,8.7-33.6,14.9-51.7,18.4
			C1200.7,408.4,1194.5,425.8,1185.8,442z"/>
		<path class="st0" d="M1005.5,387.9c-14.5,3.7-29.4,5.7-44.5,5.9c4.7,16.8,12.4,33,22.5,47.2c17.2-2.9,34.1-8.9,49.3-17.4
			C1022.3,412.8,1013.1,400.9,1005.5,387.9z"/>
		<path class="st0" d="M1093.3,423.6c15.2,8.6,32.1,14.6,49.3,17.4c10.1-14.2,17.8-30.4,22.5-47.2c-15.1-0.2-30-2.2-44.5-5.9
			C1112.9,400.9,1103.7,412.8,1093.3,423.6z"/>
		<path class="st0" d="M1041.2,374.7c5.7,8.8,12.3,16.9,19.7,24.3c0.7,0.7,1.4,1.3,2.1,2c0.7-0.7,1.4-1.4,2.1-2
			c7.3-7.4,14-15.5,19.7-24.3c-7.5-3.7-14.8-7.9-21.8-12.6C1056,366.8,1048.7,371,1041.2,374.7z"/>
		<path class="st0" d="M983,329c-8.2-1.6-16.3-3.8-24.2-6.5c-2.2,10.2-3.3,20.7-3.3,31.1c0,0.9,0,1.9,0,2.9c1,0,2,0,2.9,0
			c10.4,0,20.9-1.1,31.1-3.2C986.8,345.4,984.6,337.2,983,329z"/>
		<path class="st0" d="M1143,329c-1.6,8.2-3.8,16.3-6.5,24.2c10.2,2.1,20.6,3.2,31.1,3.2c0.9,0,1.9,0,2.9,0c0-1,0-1.9,0-2.9
			c0-10.4-1.1-20.9-3.3-31.1C1159.3,325.2,1151.2,327.4,1143,329z"/>
		<path class="st0" d="M1201.9,306.6c3.7,14.5,5.7,29.4,5.9,44.5c16.8-4.7,33-12.4,47.2-22.5c-2.9-17.2-8.9-34.1-17.4-49.3
			C1226.8,289.8,1214.8,298.9,1201.9,306.6z"/>
		<path class="st0" d="M918.2,351c0.2-15,2.2-30,5.9-44.5c-12.9-7.6-24.9-16.8-35.6-27.3c-8.6,15.2-14.6,32.1-17.4,49.3
			C885.2,338.7,901.4,346.4,918.2,351z"/>
		<path class="st0" d="M1022,345.8c5.6-2.7,11-5.6,16.4-8.6c-3-3.1-6-6.2-8.9-9.5c-4.3,0.2-8.7,0.3-12.9,0.4
			C1018.2,334.1,1020,340,1022,345.8z"/>
		<path class="st0" d="M1087.6,337.2c5.4,3,10.8,5.9,16.4,8.6c2-5.8,3.8-11.7,5.4-17.7c-4.3-0.1-8.6-0.2-12.9-0.4
			C1093.6,331,1090.6,334.1,1087.6,337.2z"/>
		<path class="st0" d="M814,249c5.3,17.8,14.2,34.8,25.7,49.6c5.4-17.6,13.3-34.2,23.6-49.6c-10.3-15.4-18.2-32-23.6-49.6
			C828.1,214.2,819.3,231.2,814,249z"/>
		<path class="st0" d="M1286.3,199.4c-5.4,17.6-13.3,34.2-23.6,49.6c10.3,15.4,18.2,32,23.6,49.6c11.5-14.8,20.4-31.8,25.7-49.6
			C1306.7,231.2,1297.9,214.2,1286.3,199.4z"/>
		<path class="st0" d="M966.2,290c5.8,2,11.7,3.8,17.7,5.4c0.1-4.3,0.2-8.6,0.4-12.9c-3.2-2.9-6.4-5.9-9.5-8.9
			C971.8,279,968.9,284.5,966.2,290z"/>
		<path class="st0" d="M1142.1,295.5c5.9-1.6,11.9-3.4,17.7-5.4c-2.7-5.6-5.6-11-8.7-16.4c-3.1,3-6.2,6-9.4,8.9
			C1142,286.9,1142.1,291.2,1142.1,295.5z"/>
		<path class="st0" d="M1106.5,205.5c-13.8-7.5-28.5-13.5-43.5-18c-15.1,4.5-29.7,10.6-43.5,18c-7.5,13.8-13.5,28.5-18,43.5
			c4.5,15.1,10.6,29.7,18,43.5c13.8,7.5,28.5,13.5,43.5,18c15.1-4.5,29.7-10.6,43.5-18c7.5-13.8,13.5-28.5,18-43.5
			C1120,234,1114,219.3,1106.5,205.5z"/>
		<path class="st0" d="M1176.1,249c4.7,7,8.9,14.2,12.6,21.8c8.8-5.7,16.9-12.3,24.3-19.7c0.7-0.7,1.3-1.4,2-2.1
			c-0.7-0.7-1.4-1.4-2-2.1c-7.3-7.3-15.5-14-24.3-19.7C1185,234.8,1180.8,242.1,1176.1,249z"/>
		<path class="st0" d="M913,246.9c-0.7,0.7-1.3,1.4-2,2.1c0.7,0.7,1.4,1.4,2,2.1c7.3,7.3,15.5,14,24.3,19.7
			c3.7-7.5,7.9-14.8,12.6-21.8c-4.7-7-8.9-14.2-12.6-21.8C928.5,233,920.4,239.6,913,246.9z"/>
		<path class="st0" d="M1159.8,208c-5.8-2-11.7-3.8-17.7-5.4c-0.1,4.3-0.2,8.6-0.4,12.9c3.2,2.9,6.3,5.9,9.4,8.9
			C1154.2,219,1157.1,213.6,1159.8,208z"/>
		<path class="st0" d="M983.9,202.6c-6,1.6-11.9,3.4-17.7,5.4c2.7,5.6,5.6,11,8.6,16.4c3.1-3,6.3-6,9.5-8.9
			C984.1,211.2,983.9,206.9,983.9,202.6z"/>
		<path class="st0" d="M1207.8,147c-0.2,15-2.2,30-5.9,44.5c12.9,7.6,24.9,16.8,35.6,27.3c8.6-15.2,14.6-32.1,17.4-49.3
			C1240.8,159.4,1224.6,151.7,1207.8,147z"/>
		<path class="st0" d="M918.2,147c-16.8,4.7-33,12.4-47.2,22.5c2.9,17.2,8.9,34.1,17.4,49.3c10.8-10.5,22.7-19.6,35.6-27.3
			C920.3,177,918.3,162,918.2,147z"/>
		<path class="st0" d="M1167.6,141.5c-10.4,0-20.9,1.1-31.1,3.2c2.7,7.9,4.9,16,6.5,24.2c8.2,1.6,16.3,3.8,24.2,6.5
			c2.2-10.2,3.3-20.7,3.3-31.1c0-0.9,0-1.9,0-2.9C1169.5,141.5,1168.5,141.5,1167.6,141.5z"/>
		<path class="st0" d="M983,169c1.6-8.2,3.8-16.3,6.5-24.2c-10.2-2.1-20.6-3.2-31.1-3.2c-0.9,0-1.9,0-2.9,0c0,1,0,1.9,0,2.9
			c0,10.4,1.1,20.9,3.3,31.1C966.6,172.8,974.8,170.6,983,169z"/>
		<path class="st0" d="M1104,152.2c-5.6,2.7-11,5.6-16.4,8.6c3,3.1,6,6.2,8.9,9.5c4.3-0.2,8.6-0.3,12.9-0.4
			C1107.8,163.9,1106,158,1104,152.2z"/>
		<path class="st0" d="M1038.4,160.9c-5.4-3-10.8-5.9-16.4-8.6c-2,5.8-3.8,11.7-5.4,17.7c4.3,0.1,8.6,0.2,12.9,0.4
			C1032.4,167.1,1035.4,163.9,1038.4,160.9z"/>
		<path class="st0" d="M1084.8,123.3c-5.7-8.8-12.3-16.9-19.7-24.3c-0.7-0.7-1.4-1.4-2.1-2c-0.7,0.7-1.4,1.4-2.1,2
			c-7.3,7.4-14,15.5-19.7,24.3c7.5,3.7,14.8,7.9,21.8,12.6C1069.9,131.2,1077.2,127,1084.8,123.3z"/>
		<path class="st0" d="M940.2,56c-18.6,2.3-36.9,8.1-53.3,16.9c-8.8,16.4-14.6,34.6-16.9,53.2c16.2-8.7,33.6-14.9,51.7-18.4
			C925.3,89.6,931.5,72.3,940.2,56z"/>
		<path class="st0" d="M1185.8,56c8.7,16.2,14.9,33.6,18.4,51.7c18.1,3.6,35.5,9.8,51.7,18.4c-2.3-18.6-8.1-36.9-16.9-53.2
			C1222.7,64.1,1204.4,58.3,1185.8,56z"/>
		<path class="st0" d="M1120.5,110.1c14.5-3.7,29.4-5.7,44.5-5.9c-4.7-16.8-12.4-33-22.5-47.2c-17.2,2.9-34.1,8.9-49.3,17.4
			C1103.7,85.2,1112.9,97.2,1120.5,110.1z"/>
		<path class="st0" d="M1032.7,74.5c-15.2-8.6-32.1-14.6-49.3-17.4c-10.1,14.2-17.8,30.4-22.5,47.2c15,0.2,30,2.2,44.5,5.9
			C1013.1,97.2,1022.3,85.2,1032.7,74.5z"/>
		<path class="st0" d="M1112.6,25.7C1097.8,14.2,1080.8,5.3,1063,0c-17.8,5.3-34.8,14.2-49.6,25.7c17.6,5.4,34.2,13.3,49.6,23.6
			C1078.4,38.9,1095,31,1112.6,25.7z"/>
	</g>
</g>
</svg>
